REM MD5 7792f6cb10d39dadaa0bfa23f09a69cf
FILE "Yuukyuu Gensoukyoku Ensemble 2 (Japan).bin" BINARY
  TRACK 01 MODE2/2352
    INDEX 01 00:00:00
  TRACK 02 AUDIO
    INDEX 00 46:34:46
    INDEX 01 46:36:46
  TRACK 03 AUDIO
    INDEX 00 49:14:39
    INDEX 01 49:16:39
  TRACK 04 AUDIO
    INDEX 00 51:18:16
    INDEX 01 51:20:16
  TRACK 05 AUDIO
    INDEX 00 55:08:16
    INDEX 01 55:10:16
  TRACK 06 AUDIO
    INDEX 00 57:12:01
    INDEX 01 57:14:01
REM LEADOUT 61:03:20
